<?xml version="1.0" encoding="UTF-8"?>
<svg id="Capa_2" data-name="Capa 2" xmlns="http://www.w3.org/2000/svg" viewBox="0 0 20.3 31.6">
  <defs>
    <style>
      .cls-1 {
        fill: #49d0d1;
        stroke-width: 0px;
      }
    </style>
  </defs>
  <g id="Capa_1-2" data-name="Capa 1">
    <path class="cls-1" d="M2.5,12.39s-.04.03-.06.05c-.15.22-.3.44-.45.66-.16.24-.32.47-.48.72-.09.13-.16.26-.23.39-.1.17-.2.34-.3.5-.05.08-.09.17-.13.24-.09.19-.2.38-.29.57,0,.02-.02.02-.04.05-.02-.04-.02-.07-.04-.1-.13-.45-.26-.9-.35-1.35-.06-.35-.1-.7-.08-1.05.02-.35.1-.68.21-1.01.2-.58.53-1.08.94-1.53.48-.54,1.04-.98,1.64-1.38.35-.23.69-.47,1.02-.73.22-.18.44-.37.63-.59.06-.07.12-.15.15-.25,0,0-.02.02-.03.02-.28.31-.63.56-.99.76-.15.08-.31.15-.46.23-.09.04-.17.09-.26.13-.04.02-.09.03-.13.04-.04-.06-.06-.13-.07-.2-.03-.17-.09-.33-.16-.5-.06-.15-.13-.3-.2-.43-.07-.12-.15-.24-.23-.35-.13-.2-.27-.4-.4-.61-.13-.19-.2-.41-.25-.64-.05-.26-.02-.51.06-.76.06-.19.13-.38.2-.57.03-.07.04-.15.02-.22-.06-.2-.1-.39-.16-.59-.02-.06-.03-.11-.06-.17-.16.06-.31.12-.44.2-.15.09-.28.19-.41.3-.07.07-.14.15-.21.22-.05.05-.09.09-.16.1-.06.02-.09,0-.11-.07-.02-.09,0-.17.04-.24.05-.09.1-.18.17-.24.16-.15.32-.28.5-.42.08-.06.17-.09.25-.14.07-.04.15-.08.23-.12,0-.07-.02-.13-.04-.2,0-.05-.02-.09-.04-.15-.02-.09-.02-.11.06-.17.11-.08.22-.13.36-.13.1,0,.18.04.24.12.05.07.09.14.13.22.02.05.04.06.09.04.24-.07.5-.14.74-.21.2-.06.39-.15.55-.28.06-.05.13-.1.18-.17.17-.18.37-.31.62-.35.02,0,.02,0,.05-.02v-.09c0-.21-.02-.43-.04-.65-.02-.14.05-.24.13-.32.09-.1.19-.21.25-.33.07-.13.07-.24-.02-.34-.02-.02-.06-.04-.09-.06-.05-.02-.09-.04-.14-.04-.16-.02-.26.09-.25.24,0,.03,0,.06,0,.09,0,.06-.04.1-.09.11-.06,0-.1-.02-.13-.06-.02-.04-.03-.08-.02-.12.02-.19.13-.31.29-.39.28-.13.57.02.69.23.06.1.06.21.02.32-.06.18-.15.35-.29.47-.09.09-.13.17-.12.31.02.18.02.37.02.56,0,.02,0,.04,0,.06.1.02.2.02.29.04.03,0,.07.02.09.03.13.08.26.14.38.24.09.07.17.16.28.22.13.08.24.19.39.24l.05.02c.2.12.42.19.65.27.07.02.13.05.21.07.04-.09.08-.17.1-.25.03-.09.08-.13.17-.13.09,0,.18,0,.27,0,.05,0,.1,0,.15.02.08.02.1.08.09.16-.02.09-.03.17-.05.26,0,.04-.02.08-.02.13.1.04.2.07.29.11.18.06.34.17.5.28.17.11.27.27.38.42.06.09.06.18.04.28-.02.09-.1.11-.17.05-.08-.09-.15-.17-.24-.24-.14-.1-.28-.21-.45-.28-.13-.06-.27-.11-.39-.17-.02,0-.03,0-.06,0-.06.14-.08.29-.09.45-.02.19,0,.37,0,.56,0,.25,0,.51-.02.76,0,.06-.02.12-.03.17-.05.21-.09.43-.16.65-.05.15-.12.29-.17.44-.09.23-.17.46-.22.7-.02.08-.02.16-.02.24.02.22.04.44.06.66,0,.1,0,.21,0,.31.02.36.04.72.07,1.08.02.22.04.44.06.65s.06.42.09.63c.04.24.09.49.13.74.03.2.08.39.12.58.03.16.07.31.11.46.04.15.08.31.12.46.04.15.07.3.12.44.06.2.13.41.2.61.02.04.02.09.03.13.04.12.08.23.12.35.06.19.13.38.2.57.06.17.13.33.2.5.09.24.19.47.29.71.06.13.11.25.17.37.08.18.17.36.24.54.08.16.16.31.24.48.07.14.14.29.21.43.06.1.12.2.17.31.06.11.13.23.2.34.03.06.06.1.09.16.07.13.17.24.22.39.02.06.07.11.1.16.03.06.06.11.09.17,0,0,0,.02.02.03.09.13.18.28.28.41.06.09.14.18.2.28.06.11.14.2.21.3.1.14.2.28.31.42.1.13.21.25.31.39.09.11.18.21.27.32.09.11.17.22.28.31.08.07.14.16.21.24.02.02.03.04.06.06.12.06.18.17.27.27.02.02.04.06.07.07.13.09.22.22.34.33.12.1.21.23.34.32.07.05.13.12.18.17,0,0,0,.02.02.02.17.08.27.24.41.35.02,0,.02.02.04.03.14.1.29.2.43.31.02.02.04.02.06.04.11.12.26.19.39.28.16.12.33.21.49.32.13.09.27.18.41.26.17.1.36.19.54.28.1.06.2.12.31.18.02,0,.03.03.06.03.14.03.26.13.39.19.06.02.12.05.17.07.15.07.3.14.45.21.12.06.24.11.37.13.03,0,.07.02.09.03.07.06.16.06.24.09.1.03.2.05.29.12.02.02.05.02.07.03.1.02.2.05.31.07.09.02.19.04.28.08.08.03.17.04.24.06.09.02.17.04.26.06.09.02.17.04.27.06-.09.05-.19.09-.28.13-.31.15-.64.27-.97.39-.39.14-.8.24-1.21.32-.17.03-.34.04-.5.06-.04,0-.09.02-.13.02-.1,0-.2.02-.3.02-.1,0-.21.02-.31.02-.14,0-.28-.02-.43-.03-.02,0-.03,0-.05,0-.32,0-.64-.06-.96-.13-.2-.04-.4-.09-.61-.14-.17-.04-.32-.1-.48-.17-.28-.11-.57-.22-.83-.37-.15-.08-.31-.14-.46-.22-.14-.07-.28-.15-.41-.23-.11-.06-.2-.13-.31-.2-.11-.06-.2-.15-.32-.2-.03-.02-.05-.05-.08-.06-.04-.03-.08-.06-.13-.09-.09-.07-.19-.13-.27-.21-.06-.06-.14-.09-.2-.16s-.11-.13-.19-.16c0-.02-.02-.03-.03-.05t-.02.02s.03.02.05.03c.06.08.11.16.17.23.09.11.19.2.28.31.11.12.23.24.35.35.1.1.21.2.33.3.16.13.32.26.48.39.12.09.24.17.35.27.17.13.35.24.53.35.22.15.45.28.68.4.2.1.4.2.61.3.27.12.54.24.8.34.35.14.7.28,1.06.37.3.08.6.15.9.18.13.02.27.05.4.06.24.02.49.05.74.06-.02.02-.02.04-.05.05-.13.1-.28.19-.43.27-.09.04-.17.09-.25.14-.09.05-.17.09-.26.13-.11.06-.22.1-.32.17-.06.04-.15.06-.22.09-.21.09-.42.18-.64.25-.18.06-.38.1-.57.15-.03,0-.06,0-.09.02-.19.06-.39.08-.59.09-.05,0-.09.02-.14.02-.06,0-.13.02-.19.02-.04,0-.08.02-.13.02-.02,0-.04,0-.06,0h-.35c-.13,0-.25,0-.38-.02-.02,0-.02,0-.04,0-.18.02-.35-.03-.53-.05-.02,0-.02,0-.04,0-.17,0-.34-.03-.5-.06-.19-.04-.39-.07-.56-.16-.08-.04-.16-.06-.24-.09-.18-.07-.36-.14-.54-.22-.13-.06-.25-.11-.38-.17-.22-.1-.42-.24-.63-.35-.14-.08-.28-.17-.42-.27-.15-.11-.31-.2-.46-.31-.27-.2-.54-.41-.79-.64-.18-.17-.35-.34-.51-.51-.2-.21-.39-.43-.58-.65-.13-.17-.27-.33-.39-.5-.13-.19-.27-.39-.4-.57,0,0-.02-.02-.04-.03,0,.04.02.07.02.09.08.2.16.41.24.61.07.17.16.33.23.5.14.3.3.59.46.87.12.2.24.39.35.58.08.12.15.24.24.35.1.13.2.28.3.41.13.17.28.35.42.51.23.25.46.5.7.74.13.13.27.26.4.39.02.02.04.04.07.08h-.08c-.53-.04-1.05-.08-1.57-.2-.56-.13-1.11-.31-1.64-.57-.42-.2-.82-.42-1.2-.68-.36-.25-.69-.54-1-.84-.35-.34-.66-.69-.94-1.09-.29-.4-.54-.83-.74-1.27-.21-.45-.39-.91-.55-1.38-.17-.54-.31-1.1-.41-1.67-.02-.15-.03-.31-.04-.46-.02-.21-.03-.43-.04-.65,0-.24,0-.49,0-.74v-.3c-.05.06-.06.11-.06.17-.04.19-.07.39-.1.57-.05.31-.09.61-.13.92-.02.18-.06.37-.08.55-.02.09-.02.2-.02.29-.03.39-.06.79-.06,1.2,0,.31,0,.61,0,.91,0,.23.02.46.02.68v.11c-.07.02-.1-.02-.13-.07-.04-.07-.08-.15-.12-.23-.09-.18-.19-.36-.28-.54-.06-.1-.1-.21-.15-.32-.06-.12-.11-.23-.17-.35,0-.02-.02-.05-.03-.07-.13-.32-.26-.65-.35-.98-.13-.44-.23-.89-.31-1.34-.07-.42-.13-.86-.14-1.29-.02-.3-.02-.61,0-.9,0-.32.02-.65.03-.97.05-.77.13-1.53.31-2.29.17-.72.37-1.42.6-2.12.09-.26.18-.51.28-.76.13-.31.25-.62.4-.92.1-.2.2-.42.3-.63.04-.09.09-.17.13-.26.13-.24.25-.48.39-.71.04.02.04,0,.05-.03.03-.02.05-.04.05-.08,0,0,.02-.02.02-.02,0,0,0,0-.02,0,0,0,0,.02,0,.03-.03.02-.05.05-.05.08ZM2.27,3.47c.03.1.06.2.09.28.06.15.11.31.16.46.02.06.05.1.11.13.09.04.17.09.27.12.17.07.34.14.5.2.11.04.23.06.35.09.06.02.13.03.18.04.13.02.26.03.39.05.13.02.26.03.39.02.17,0,.34-.05.5-.06.35-.04.67-.14.98-.29.17-.09.31-.21.39-.39s.13-.35.18-.54c0-.02,0-.05,0-.08-.06-.02-.1-.03-.15-.05-.07-.02-.14-.03-.21-.06-.31-.1-.62-.19-.92-.31-.21-.09-.43-.17-.65-.25-.06-.02-.13-.05-.2-.06-.1,0-.2-.02-.31,0-.05,0-.1.02-.15.04-.15.08-.29.16-.45.2-.15.04-.29.1-.44.15-.13.04-.27.07-.4.11-.21.07-.42.13-.64.2ZM2.63,12.19h0s0,0,0,0h0Z"/>
  </g>
</svg>